#!OML:ASF F:\VICON\USERDATA\INSTALL\Justin_Nancy\Justin_Nancy.ASF
:FULLY-SPECIFIED
:DEGREES
144
root 0.819625 17.6711 -6.41785 -0.321819 -3.33053 2.1232
lowerback 5.63281 0.441249 -1.80992
upperback 0.144687 0.524194 1.71935
thorax -3.04283 0.298769 2.74873
lowerneck -16.8659 -2.9593 -9.23853
upperneck 22.0893 -2.766 4.76953
head 10.0231 -1.50827 2.8496
rclavicle 8.97016e-015 -2.38542e-015
rhumerus -30.5591 -12.7447 -77.0919
rradius 31.0685
rwrist 8.24456
rhand -12.4494 10.4488
rfingers 7.12502
rthumb 13.6239 -19.0854
lclavicle 8.97016e-015 -2.38542e-015
lhumerus -33.7044 12.8516 83.8444
lradius 21.7419
lwrist -14.7192
lhand -12.94 29.0311
lfingers 7.12502
lthumb 13.1511 418.596
rfemur -10.1229 -0.473366 18.7188
rtibia 62.6756
rfoot 2.4662 -7.2094
rtoes 4.33967
lfemur -14.1845 0.701857 -26.4844
ltibia 23.7114
lfoot -6.83642 3.10735
ltoes 4.94145
145
root 0.831336 17.6586 -6.27722 -0.35293 -3.33137 2.21064
lowerback 5.69811 0.402413 -1.83613
upperback 0.0446982 0.47079 1.72897
thorax -3.17985 0.275482 2.77783
lowerneck -16.7805 -2.91677 -9.31388
upperneck 22.2721 -2.71637 4.8407
head 10.0705 -1.48757 2.89766
rclavicle -3.15571e-015 -3.18055e-015
rhumerus -31.0005 -13.0053 -76.8908
rradius 30.9706
rwrist 8.65671
rhand -12.5242 9.76719
rfingers 7.12502
rthumb 13.5518 -19.7718
lclavicle -3.15571e-015 -3.18055e-015
lhumerus -33.5612 12.4636 84.0161
lradius 22.0859
lwrist -14.3752
lhand -12.9269 28.9214
lfingers 7.12502
lthumb 13.1637 418.486
rfemur -11.4417 -0.600951 18.5115
rtibia 63.6483
rfoot 1.83209 -7.43532
rtoes 5.84405
lfemur -13.6849 0.814528 -26.6774
ltibia 23.7593
lfoot -7.30658 3.16135
ltoes 4.25136
146
root 0.838465 17.6547 -6.13089 -0.455494 -3.20509 2.53049
lowerback 5.73393 0.365267 -2.14896
upperback -0.0115563 0.397996 1.6599
thorax -3.25542 0.24535 2.88898
lowerneck -16.5383 -2.8581 -9.05099
upperneck 22.3475 -2.67389 4.60493
head 10.041 -1.47685 2.77728
rclavicle 1.14053e-014 1.11319e-014
rhumerus -31.3402 -13.6957 -76.5686
rradius 30.5571
rwrist 9.36462
rhand -12.6315 10.4851
rfingers 7.12502
rthumb 13.4484 -19.0608
lclavicle 1.14053e-014 1.11319e-014
lhumerus -33.3085 12.2534 84.0896
lradius 22.2698
lwrist -14.2107
lhand -13.1128 28.504
lfingers 7.12502
lthumb 12.9845 418.08
rfemur -12.6661 -0.875871 18.0404
rtibia 64.396
rfoot 1.20189 -7.469
rtoes 5.79846
lfemur -13.1583 0.819453 -27.109
ltibia 23.9753
lfoot -7.94108 3.30073
ltoes 4.43445
147
root 0.841818 17.6521 -5.9903 -0.49148 -2.9876 2.69354
lowerback 5.6563 0.284207 -2.26403
upperback 0.105632 0.280722 1.57718
thorax -3.08298 0.184177 2.87784
lowerneck -16.695 -2.85572 -8.83569
upperneck 22.302 -2.70094 4.55231
head 10.0516 -1.47457 2.71756
rclavicle -7.00716e-015 3.97569e-015
rhumerus -31.3341 -14.2981 -76.4775
rradius 30.0228
rwrist 9.80619
rhand -13.1038 11.3176
rfingers 7.12502
rthumb 12.9932 -18.2577
lclavicle -7.00716e-015 3.97569e-015
lhumerus -32.4312 12.0803 84.1269
lradius 21.9873
lwrist -14.3245
lhand -13.7277 28.3142
lfingers 7.12502
lthumb 12.3916 417.927
rfemur -13.9577 -1.17734 17.8051
rtibia 64.9694
rfoot 0.315664 -7.53758
rtoes 3.90499
lfemur -12.7827 0.95009 -27.3493
ltibia 24.318
lfoot -8.58716 3.2513
ltoes 3.49501
148
root 0.844768 17.6407 -5.8559 -0.413665 -2.89637 2.63647
lowerback 5.61587 0.182913 -2.2173
upperback 0.104507 0.150624 1.6158
thorax -3.05269 0.118534 2.90215
lowerneck -16.8038 -2.79873 -8.90776
upperneck 22.305 -2.63037 4.70951
head 10.0704 -1.42885 2.79525
rclavicle -5.7896e-015 5.56597e-015
rhumerus -31.5061 -14.7861 -76.3489
rradius 29.7445
rwrist 10.0557
rhand -13.5029 11.5881
rfingers 7.12502
rthumb 12.6084 -18.0114
lclavicle -5.7896e-015 5.56597e-015
lhumerus -31.8947 12.2637 84.0874
lradius 22.0585
lwrist -14.7128
lhand -14.1104 28.1934
lfingers 7.12502
lthumb 12.0226 417.828
rfemur -15.2481 -1.23677 17.8582
rtibia 65.372
rfoot -0.805302 -7.68555
rtoes 3.43923
lfemur -12.5051 1.04422 -27.3216
ltibia 24.6402
lfoot -9.28398 3.13944
ltoes 3.38377
149
root 0.848054 17.6247 -5.72471 -0.325516 -2.62102 2.7282
lowerback 5.63805 -0.0297446 -2.39917
upperback -0.00286956 -0.14273 1.68686
thorax -3.15604 -0.0213379 3.10327
lowerneck -16.7082 -2.68291 -8.9692
upperneck 22.3382 -2.46133 4.71048
head 10.052 -1.35783 2.82994
rclavicle -9.14409e-015 1.27222e-014
rhumerus -31.8037 -15.0594 -76.132
rradius 29.5712
rwrist 10.3046
rhand -13.5683 11.5983
rfingers 7.12502
rthumb 12.5453 -18.0051
lclavicle -9.14409e-015 1.27222e-014
lhumerus -31.6611 12.4373 84.0998
lradius 22.3349
lwrist -14.5917
lhand -14.3488 27.9781
lfingers 7.12502
lthumb 11.7928 417.626
rfemur -16.3912 -1.5531 17.716
rtibia 65.6396
rfoot -2.13497 -7.42105
rtoes 3.60001
lfemur -12.235 0.906576 -27.4673
ltibia 24.9738
lfoot -9.9125 2.88431
ltoes 3.55839
150
root 0.852464 17.6214 -5.58671 -0.250876 -2.16462 2.97771
lowerback 5.57191 -0.239282 -2.69609
upperback -0.0545922 -0.439201 1.71846
thorax -3.14892 -0.163534 3.32784
lowerneck -16.707 -2.67265 -9.10848
upperneck 22.432 -2.42269 4.75843
head 10.0853 -1.34803 2.87719
rclavicle -1.07344e-014 1.90833e-014
rhumerus -32.1636 -15.3084 -75.8726
rradius 29.5674
rwrist 10.2195
rhand -13.3984 11.1896
rfingers 7.12502
rthumb 12.7092 -18.4037
lclavicle -1.07344e-014 1.90833e-014
lhumerus -31.2766 12.4077 84.2538
lradius 22.4283
lwrist -14.2819
lhand -14.5392 27.0778
lfingers 7.12502
lthumb 11.6092 416.736
rfemur -17.6447 -2.06285 17.3861
rtibia 65.639
rfoot -3.10151 -6.98195
rtoes 2.1344
lfemur -11.9639 0.631251 -27.7964
ltibia 25.3228
lfoot -10.3889 2.71719
ltoes 4.22284
151
root 0.857601 17.6149 -5.44508 -0.335737 -2.04008 3.13704
lowerback 5.76603 -0.338167 -2.89917
upperback -0.144222 -0.587512 1.76615
thorax -3.33704 -0.228832 3.50788
lowerneck -16.5716 -2.63222 -9.11488
upperneck 22.486 -2.34444 4.62155
head 10.0721 -1.33096 2.84112
rclavicle 7.95139e-016 7.15625e-015
rhumerus -32.8045 -15.288 -75.6541
rradius 29.7517
rwrist 9.79525
rhand -13.296 10.5347
rfingers 7.12502
rthumb 12.8079 -19.0524
lclavicle 7.95139e-016 7.15625e-015
lhumerus -30.9315 12.6167 84.2607
lradius 22.355
lwrist -14.2376
lhand -14.8978 26.3327
lfingers 7.12502
lthumb 11.2634 416.01
rfemur -18.6529 -2.24801 17.1597
rtibia 65.4733
rfoot -4.17947 -6.54762
rtoes 0.453832
lfemur -11.625 0.756442 -28.0471
ltibia 25.6749
lfoot -10.7484 2.79412
ltoes 3.8342
152
root 0.86497 17.5999 -5.30171 -0.445621 -2.00684 3.03058
lowerback 5.95386 -0.414973 -2.75562
upperback -0.23633 -0.682815 1.80998
thorax -3.53133 -0.273287 3.48428
lowerneck -16.4637 -2.64484 -9.03644
upperneck 22.6716 -2.36841 4.50007
head 10.118 -1.35394 2.78434
rclavicle -5.06901e-015 -1.59028e-015
rhumerus -33.4357 -15.5473 -75.4836
rradius 29.9022
rwrist 9.4674
rhand -13.0876 10.5068
rfingers 7.12502
rthumb 13.0088 -19.0676
lclavicle -5.06901e-015 -1.59028e-015
lhumerus -30.6024 12.4418 84.283
lradius 22.3498
lwrist -14.0866
lhand -15.0291 26.5467
lfingers 7.12502
lthumb 11.1367 416.231
rfemur -19.5398 -2.28428 17.2449
rtibia 65.1333
rfoot -5.36806 -6.2209
rtoes 0.223564
lfemur -11.1751 0.845659 -27.9908
ltibia 26.0366
lfoot -11.3719 3.06234
ltoes 3.25786
153
root 0.86957 17.5698 -5.16398 -0.385978 -1.87994 3.13512
lowerback 5.75527 -0.524663 -2.8558
upperback -0.161823 -0.831421 1.81483
thorax -3.32906 -0.350532 3.55436
lowerneck -16.6472 -2.66308 -8.95969
upperneck 22.7291 -2.39436 4.48215
head 10.174 -1.36051 2.76188
rclavicle -7.52897e-015 7.95139e-015
rhumerus -33.3976 -15.9289 -75.4105
rradius 29.6198
rwrist 9.09605
rhand -13.0804 11.297
rfingers 7.12502
rthumb 13.0157 -18.2769
lclavicle -7.52897e-015 7.95139e-015
lhumerus -30.0728 12.1347 84.4607
lradius 22.5896
lwrist -13.837
lhand -14.8947 26.9768
lfingers 7.12502
lthumb 11.2663 416.654
rfemur -20.6394 -2.4268 17.1179
rtibia 64.7329
rfoot -6.83431 -6.16074
rtoes 0.48681
lfemur -10.9091 0.950645 -28.1323
ltibia 26.5108
lfoot -12.2241 3.11339
ltoes 3.75768
154
root 0.872291 17.5399 -5.03172 -0.404119 -1.72346 3.19343
lowerback 5.85383 -0.671112 -2.95719
upperback -0.143593 -1.03342 1.88944
thorax -3.34594 -0.448734 3.70787
lowerneck -16.8837 -2.58417 -8.93447
upperneck 22.79 -2.25238 4.41927
head 10.229 -1.29904 2.75513
rclavicle -5.56597e-015 2.38542e-015
rhumerus -33.4037 -15.9936 -75.3343
rradius 29.2952
rwrist 8.4362
rhand -13.2581 11.7142
rfingers 7.12502
rthumb 12.8444 -17.8707
lclavicle -5.56597e-015 2.38542e-015
lhumerus -29.7103 11.8378 84.7131
lradius 23.0079
lwrist -13.3556
lhand -14.569 27.6665
lfingers 7.12502
lthumb 11.5804 417.327
rfemur -21.6295 -2.63632 17.0469
rtibia 64.2081
rfoot -7.46269 -6.0498
rtoes -0.82016
lfemur -10.6767 1.03991 -28.2269
ltibia 27.0887
lfoot -13.0109 3.17279
ltoes 3.83287
155
root 0.873321 17.5163 -4.89707 -0.436156 -1.62351 3.24533
lowerback 6.02928 -0.769321 -3.06174
upperback -0.150238 -1.17347 1.96091
thorax -3.43606 -0.514054 3.8574
lowerneck -17.0837 -2.57058 -8.95878
upperneck 22.8165 -2.18876 4.34784
head 10.2718 -1.27891 2.74233
rclavicle 1.00386e-014 -2.46493e-014
rhumerus -33.5553 -16.1345 -75.2244
rradius 29.205
rwrist 7.99537
rhand -13.0786 11.729
rfingers 7.12502
rthumb 13.0174 -17.8449
lclavicle 1.00386e-014 -2.46493e-014
lhumerus -29.0084 11.6288 84.9541
lradius 22.9301
lwrist -12.9176
lhand -14.5057 28.0407
lfingers 7.12502
lthumb 11.6414 417.697
rfemur -22.5612 -2.7778 17.0006
rtibia 63.5843
rfoot -8.58494 -5.61638
rtoes -3.08242
lfemur -10.4389 1.13325 -28.3149
ltibia 27.6452
lfoot -13.7597 3.19243
ltoes 3.33616
156
root 0.873717 17.4933 -4.76193 -0.462144 -1.49776 3.2353
lowerback 6.10767 -0.830015 -3.11137
upperback -0.0961162 -1.25758 2.02438
thorax -3.41413 -0.555917 3.95989
lowerneck -17.303 -2.61379 -8.91894
upperneck 22.8101 -2.22617 4.29737
head 10.3132 -1.29635 2.71165
rclavicle 4.52235e-015 -7.95139e-016
rhumerus -33.7495 -16.3583 -75.1059
rradius 29.2149
rwrist 7.80973
rhand -12.8504 12.1248
rfingers 7.12502
rthumb 13.2374 -17.4348
lclavicle 4.52235e-015 -7.95139e-016
lhumerus -28.2455 11.4416 85.1719
lradius 22.8428
lwrist -12.8853
lhand -14.8763 27.4092
lfingers 7.12502
lthumb 11.2841 417.086
rfemur -23.4522 -2.91862 17.0309
rtibia 62.8588
rfoot -9.37312 -5.4236
rtoes -2.89908
lfemur -10.1923 1.16005 -28.3292
ltibia 28.188
lfoot -14.4098 3.16097
ltoes 2.89583
157
root 0.872325 17.4661 -4.62726 -0.553167 -1.47113 3.45351
lowerback 6.24634 -0.857944 -3.42178
upperback -0.0366625 -1.32088 2.02296
thorax -3.418 -0.583061 4.14224
lowerneck -17.352 -2.64938 -8.77527
upperneck 22.6666 -2.27971 4.17758
head 10.2713 -1.31974 2.63469
rclavicle -8.94531e-015 1.82882e-014
rhumerus -34.0312 -16.3751 -75.066
rradius 29.3524
rwrist 7.58757
rhand -12.7727 12.6167
rfingers 7.12502
rthumb 13.3123 -16.9381
lclavicle -8.94531e-015 1.82882e-014
lhumerus -27.7149 11.2873 85.2799
lradius 23.0138
lwrist -13.1402
lhand -14.9897 26.8722
lfingers 7.12502
lthumb 11.1747 416.555
rfemur -24.3208 -3.09553 16.7996
rtibia 62.0574
rfoot -10.2907 -5.22979
rtoes -3.7878
lfemur -9.82307 1.16933 -28.5947
ltibia 28.6285
lfoot -14.881 3.33208
ltoes 3.10357
158
root 0.869588 17.4424 -4.49535 -0.542372 -1.40146 3.40774
lowerback 6.29865 -0.885886 -3.45316
upperback 0.00490736 -1.35942 2.09063
thorax -3.39825 -0.602414 4.23471
lowerneck -17.3366 -2.73986 -8.81874
upperneck 22.5131 -2.39769 4.19461
head 10.2228 -1.37332 2.62925
rclavicle -1.71949e-014 1.27222e-014
rhumerus -34.3856 -16.2567 -75.0706
rradius 29.7418
rwrist 7.15962
rhand -12.7492 12.3564
rfingers 7.12502
rthumb 13.335 -17.1969
lclavicle -1.71949e-014 1.27222e-014
lhumerus -27.1028 10.6771 85.5677
lradius 23.3237
lwrist -12.7634
lhand -14.2164 27.5011
lfingers 7.12502
lthumb 11.9204 417.142
rfemur -25.2235 -3.23034 16.9168
rtibia 61.0593
rfoot -11.031 -5.30626
rtoes -5.95014
lfemur -9.48229 1.14584 -28.5591
ltibia 28.9313
lfoot -15.3843 3.44843
ltoes 3.43048
